<?xml version="1.0" encoding="utf-8"?>
<!-- Generator: Adobe Illustrator 26.0.2, SVG Export Plug-In . SVG Version: 6.00 Build 0)  -->
<svg version="1.1" id="Calque_1" xmlns="http://www.w3.org/2000/svg" xmlns:xlink="http://www.w3.org/1999/xlink" x="0px" y="0px"
	 viewBox="0 0 78 30" style="enable-background:new 0 0 78 30;" xml:space="preserve">
<style type="text/css">
	.st0{fill:#FFFFFF;}
	.st1{fill:#020304;}
	.st2{fill:#010202;}
	.st3{fill:#BB2E38;}
	.st4{fill:#26315C;}
</style>
<g>
	<g id="bouton_menu_choix_allemand" transform="translate(163 295)">
		<g id="choix_langue_allemand" transform="translate(371 -384)">
			<g id="bouton_langue" transform="translate(-254 174)">
				<g transform="matrix(1, 0, 0, 1, -9, -9)">
					<path id="Rectangle_408-2" class="st0" d="M-256-76h48c8.3,0,15,6.7,15,15l0,0c0,8.3-6.7,15-15,15h-48c-8.3,0-15-6.7-15-15l0,0
						C-271-69.3-264.3-76-256-76z"/>
				</g>
				<path id="fleche" class="st1" d="M-209.1-70.4c0-0.1-0.1-0.1-0.1-0.2l-4.8-4.8c-0.3-0.4-0.8-0.4-1.2-0.1l-0.1,0.1l0,0
					c-0.4,0.3-0.4,0.8-0.1,1.2l0.1,0.1l0,0l4.3,4.3l-4.3,4c-0.4,0.3-0.4,0.8-0.1,1.2l0.1,0.1l0,0c0.3,0.4,0.8,0.4,1.2,0.1l0.1-0.1
					l5-4.6C-208.8-69.6-208.8-70.1-209.1-70.4z"/>
			</g>
		</g>
		<g id="Groupe_344" transform="translate(156 -204)">
			<path id="Rectangle_56" class="st2" d="M-279-83h15c0.6,0,1,0.4,1,1s-0.4,1-1,1h-15c-0.6,0-1-0.4-1-1S-279.6-83-279-83z"/>
			<path id="Rectangle_57" class="st2" d="M-279-77h15c0.6,0,1,0.4,1,1l0,0c0,0.6-0.4,1-1,1h-15c-0.6,0-1-0.4-1-1l0,0
				C-280-76.6-279.6-77-279-77z"/>
			<path id="Rectangle_58" class="st2" d="M-279-71h15c0.6,0,1,0.4,1,1s-0.4,1-1,1h-15c-0.6,0-1-0.4-1-1S-279.6-71-279-71z"/>
		</g>
	</g>
	<g id="Drapeau_anglais" transform="translate(-311 60.927)">
		<path id="Tracé_14" class="st0" d="M342.2-49.1C342.2-49.1,342.1-49.1,342.2-49.1L342.2-49.1h2.4l0,0H342.2L342.2-49.1z"/>
		<path id="Tracé_15" class="st0" d="M322.1-49.1L322.1-49.1C322.2-49.1,322.1-49.1,322.1-49.1L322.1-49.1L322.1-49.1
			c-0.3,0-0.5,0-0.8,0h-1.5l0,0H322.1z"/>
		<path id="Tracé_16" class="st0" d="M335.3-42.2L335.3-42.2C335.3-42.1,335.2-42.1,335.3-42.2v5.3l0,0V-42.2z"/>
		<path id="Tracé_17" class="st0" d="M328.6-50.1c0.1,0.1,0.3,0.2,0.4,0.3l0,0L328.6-50.1c-1.6-1.1-3.2-2.1-4.8-3.1
			c-0.2-0.1-0.3-0.2-0.5-0.3l0,0l0,0c0.2,0.1,0.3,0.2,0.5,0.3C325.4-52.1,327-51.1,328.6-50.1z"/>
		<path id="Tracé_18" class="st0" d="M322.1-42.9L322.1-42.9c-0.6,0.4-1.2,0.8-1.9,1.2l0,0C320.9-42.1,321.5-42.5,322.1-42.9
			C322.1-42.8,322.1-42.9,322.1-42.9z"/>
		<path id="Tracé_19" class="st0" d="M335.3-49.8L335.3-49.8c1.2-0.8,2.3-1.5,3.5-2.2c0.8-0.5,1.5-1,2.3-1.5l0,0
			c-0.8,0.5-1.5,1-2.3,1.5C337.6-51.3,336.5-50.6,335.3-49.8L335.3-49.8C335.3-49.8,335.3-49.9,335.3-49.8V-55l0,0V-49.8z"/>
		<path id="Tracé_20" class="st0" d="M342.2-42.9L342.2-42.9C342.2-42.8,342.2-42.8,342.2-42.9c0.7,0.4,1.2,0.8,1.8,1.2l0,0
			C343.4-42.1,342.8-42.5,342.2-42.9C342.2-42.8,342.2-42.9,342.2-42.9z"/>
		<path id="Tracé_21" class="st3" d="M344.8-48.1c-3.5,0-6.9,0-10.4,0c-0.1,0-0.1,0-0.1-0.1V-55h-4.4v6.8c0,0.1,0,0.1-0.1,0.1
			c-3.5,0-6.9,0-10.4,0c-0.2,0.7-0.3,1.5-0.3,2.2l0,0c0,0.7,0.1,1.4,0.3,2.1h10.4c0.1,0,0.1,0.1,0.1,0.1v6.8h4.4v-6.8
			c0-0.1,0-0.1,0.1-0.1h10.4c0.2-0.7,0.3-1.4,0.3-2v-0.1C345.1-46.7,345-47.4,344.8-48.1z"/>
		<path id="Tracé_22" class="st0" d="M335.3-42.1L335.3-42.1L335.3-42.1L335.3-42.1c0-0.1,0.1-0.1,0.1,0c0.2,0.1,0.5,0.3,0.7,0.5
			c1.6,1,3.2,2.1,4.8,3.1l0.2,0.1c0.6-0.4,1.2-0.9,1.7-1.5c-1.2-0.8-2.5-1.6-3.7-2.4c-0.3-0.2-0.6-0.4-0.8-0.5c0,0,0,0,0.1,0h2.7
			h0.1c0.9,0.6,1.8,1.1,2.6,1.7c0.1-0.2,0.2-0.4,0.3-0.5c-0.6-0.4-1.2-0.8-1.8-1.2c0,0-0.1,0-0.1-0.1l0,0l0,0h2.4
			c0.1-0.3,0.2-0.6,0.3-0.9h-10.4c-0.1,0-0.1,0-0.1,0.1v6.8h0.9C335.3-38.6,335.3-40.4,335.3-42.1z"/>
		<path id="Tracé_23" class="st0" d="M329-49.9L329-49.9L329-49.9L329-49.9c-0.2,0-0.3-0.1-0.4-0.2c-1.6-1.1-3.2-2.1-4.8-3.1
			c-0.2-0.1-0.3-0.2-0.5-0.3c-0.6,0.4-1.2,0.9-1.7,1.5c0.2,0.1,0.4,0.3,0.6,0.4c1.3,0.8,2.6,1.7,3.9,2.5c0,0,0,0,0.1,0.1h-2.8h-0.1
			c-0.9-0.6-1.7-1.1-2.6-1.7c-0.1,0.2-0.2,0.3-0.3,0.5c0.4,0.3,0.9,0.6,1.3,0.8c0.2,0.1,0.4,0.2,0.5,0.4l0,0l0,0l0,0h-2.4
			c-0.1,0.3-0.2,0.6-0.3,0.9h10.4c0.1,0,0.1,0,0.1-0.1V-55h-0.9C329-53.3,329-51.6,329-49.9z"/>
		<path id="Tracé_24" class="st0" d="M342.3-49.1h-0.1C342.2-49.1,342.2-49.1,342.3-49.1C342.2-49.1,342.2-49.1,342.3-49.1h-0.1
			C342.2-49.1,342.2-49.1,342.3-49.1c0.3-0.3,0.6-0.5,1-0.7c0.3-0.2,0.5-0.3,0.8-0.5c-0.3-0.6-0.8-1.2-1.3-1.8
			c-0.4,0.3-0.8,0.5-1.2,0.8c-1.1,0.7-2.2,1.4-3.3,2.2h-0.1h-2.8c0.1-0.1,0.3-0.2,0.4-0.2c1-0.7,2-1.3,3-2c0.9-0.6,1.9-1.2,2.8-1.8
			c-0.2-0.1-0.4-0.3-0.5-0.4c-0.8,0.5-1.5,1-2.3,1.5c-1.1,0.7-2.3,1.5-3.4,2.2c0,0,0,0-0.1,0V-55h-0.9v6.8c0,0.1,0,0.1,0.1,0.1h10.4
			c-0.1-0.3-0.2-0.6-0.3-0.9C343.8-49.1,343-49.1,342.3-49.1z"/>
		<path id="Tracé_25" class="st0" d="M322-42.9L322-42.9C322.1-42.9,322.1-42.9,322-42.9C322.1-42.9,322.1-42.9,322-42.9
			c-0.6,0.4-1.2,0.8-1.8,1.2c0.3,0.6,0.8,1.2,1.3,1.8c0.4-0.3,0.8-0.5,1.2-0.8c1.1-0.7,2.2-1.4,3.3-2.2h0.1h2.7c0,0,0,0,0.1,0
			c-0.1,0.1-0.3,0.2-0.4,0.3c-1.2,0.8-2.5,1.6-3.7,2.4l-2.1,1.4c0.2,0.1,0.4,0.3,0.5,0.4c0.4-0.3,0.8-0.5,1.3-0.8
			c1.5-0.9,2.9-1.9,4.4-2.9l0.1-0.1v5.3h0.9v-6.8c0-0.1,0-0.1-0.1-0.1h-10.4c0.1,0.3,0.2,0.6,0.3,0.9
			C320.5-42.9,321.3-42.9,322-42.9z"/>
		<path id="Tracé_26" class="st3" d="M335.7-49.3c-0.1,0.1-0.2,0.2-0.4,0.2h2.8h0.1c1.1-0.7,2.2-1.4,3.3-2.2
			c0.4-0.3,0.8-0.5,1.2-0.8c-0.4-0.4-0.8-0.8-1.2-1.1c-0.9,0.6-1.9,1.2-2.8,1.8C337.7-50.6,336.7-50,335.7-49.3z"/>
		<path id="Tracé_27" class="st3" d="M328.6-42.6c0.1-0.1,0.3-0.2,0.4-0.3c0,0,0,0-0.1,0h-2.7h-0.1c-1.1,0.7-2.2,1.4-3.3,2.2
			c-0.4,0.3-0.8,0.5-1.2,0.8c0.4,0.4,0.7,0.8,1.2,1.1l2.1-1.4C326.1-41,327.3-41.8,328.6-42.6z"/>
		<path id="Tracé_28" class="st3" d="M323.4-49.1h2.8c0,0-0.1,0-0.1-0.1c-1.3-0.8-2.6-1.7-3.9-2.5c-0.2-0.1-0.4-0.3-0.6-0.4
			c-0.3,0.4-0.7,0.8-0.9,1.2c0.9,0.6,1.7,1.1,2.6,1.7C323.3-49.1,323.3-49.1,323.4-49.1z"/>
		<path id="Tracé_29" class="st3" d="M340.9-42.9h-2.7c0,0,0,0-0.1,0c0.3,0.2,0.6,0.4,0.8,0.5c1.2,0.8,2.5,1.6,3.7,2.4
			c0.3-0.4,0.7-0.8,0.9-1.2C342.6-41.8,341.7-42.3,340.9-42.9C341-42.9,341-42.9,340.9-42.9z"/>
		<path id="Tracé_30" class="st4" d="M342.2-49.1L342.2-49.1h2.3c-0.1-0.4-0.3-0.8-0.5-1.2c-0.3,0.2-0.5,0.4-0.8,0.5
			C342.9-49.5,342.5-49.3,342.2-49.1z"/>
		<path id="Tracé_31" class="st4" d="M342.2-49.1L342.2-49.1L342.2-49.1L342.2-49.1c0.3-0.2,0.7-0.4,1-0.6c0.3-0.2,0.5-0.4,0.8-0.5
			l0,0c-0.3,0.2-0.5,0.3-0.8,0.5C342.9-49.6,342.5-49.3,342.2-49.1z"/>
		<path id="Tracé_32" class="st4" d="M328.6-50.1c0.1,0.1,0.3,0.2,0.4,0.3V-55h-0.8c-1.8,0-3.5,0.5-5,1.5c0.2,0.1,0.3,0.2,0.5,0.3
			C325.4-52.2,327-51.1,328.6-50.1z"/>
		<path id="Tracé_33" class="st4" d="M329-49.8L329-49.8C329.1-49.8,329.1-49.8,329-49.8V-55l0,0V-49.8z"/>
		<path id="Tracé_34" class="st4" d="M335.3-49.8L335.3-49.8c1.2-0.8,2.3-1.5,3.5-2.2c0.8-0.5,1.5-1,2.3-1.5c-1.5-1-3.2-1.5-5-1.5
			h-0.8V-49.8z"/>
		<path id="Tracé_35" class="st4" d="M336.1-41.7c-0.2-0.1-0.5-0.3-0.7-0.5c0,0-0.1,0-0.1-0.1v5.3h0.8c1.8,0,3.5-0.5,5-1.5
			c-0.1,0-0.1-0.1-0.2-0.1C339.3-39.6,337.7-40.6,336.1-41.7z"/>
		<path id="Tracé_36" class="st4" d="M322.1-49.1L322.1-49.1c-0.1-0.1-0.3-0.2-0.5-0.3c-0.4-0.3-0.9-0.6-1.3-0.8
			c-0.2,0.4-0.4,0.8-0.5,1.2h2.3V-49.1z"/>
		<path id="Tracé_37" class="st4" d="M322.1-42.9L322.1-42.9h-2.4c0.1,0.4,0.3,0.8,0.5,1.2C320.9-42.1,321.5-42.5,322.1-42.9
			L322.1-42.9z"/>
		<path id="Tracé_38" class="st4" d="M329-42.2c-0.1,0-0.1,0.1-0.1,0.1c-1.5,0.9-2.9,1.9-4.4,2.9c-0.4,0.3-0.8,0.5-1.3,0.8
			c1.5,1,3.2,1.5,5,1.5h0.8V-42.2z"/>
		<path id="Tracé_39" class="st4" d="M336.1-41.7c-0.2-0.1-0.5-0.3-0.7-0.5c0,0-0.1,0-0.1-0.1l0,0c0,0,0.1,0,0.1,0.1
			C335.6-42,335.8-41.8,336.1-41.7c1.6,1.1,3.2,2.1,4.8,3.1c0.1,0,0.1,0.1,0.2,0.1l0,0l0,0l-0.2-0.1
			C339.3-39.6,337.7-40.6,336.1-41.7z"/>
		<path id="Tracé_40" class="st4" d="M322.1-49.1L322.1-49.1c-0.2-0.1-0.4-0.2-0.5-0.4c-0.4-0.3-0.9-0.6-1.3-0.8l0,0
			c0.4,0.3,0.9,0.6,1.3,0.8C321.8-49.3,321.9-49.2,322.1-49.1z"/>
		<path id="Tracé_41" class="st4" d="M329-42.2c-0.1,0-0.1,0.1-0.1,0.1c-1.5,0.9-2.9,1.9-4.4,2.9c-0.4,0.3-0.8,0.5-1.3,0.8l0,0
			c0.4-0.3,0.8-0.5,1.3-0.8c1.5-0.9,2.9-1.9,4.4-2.9C328.9-42.1,329-42.1,329-42.2L329-42.2v5.3l0,0V-42.2z"/>
		<path id="Tracé_42" class="st4" d="M322.1-42.9L322.1-42.9L322.1-42.9h-2.4l0,0H322.1z"/>
		<path id="Tracé_43" class="st4" d="M342.2-42.9C342.2-42.8,342.2-42.8,342.2-42.9c0.7,0.4,1.3,0.8,1.9,1.2
			c0.2-0.4,0.4-0.8,0.5-1.2H342.2L342.2-42.9z"/>
		<path id="Tracé_44" class="st4" d="M342.2-42.9L342.2-42.9L342.2-42.9h2.4l0,0H342.2z"/>
	</g>
</g>
</svg>
