<svg id="Drapeau_francais" xmlns="http://www.w3.org/2000/svg" width="25.9" height="18.134" viewBox="0 0 25.9 18.134">
  <path id="Path_6741" data-name="Path 6741" d="M76.211,0c-.137,0-.274,0-.411.011V18.123c.137.011.274.011.411.011h7.765c.16,0,.308,0,.468-.011V.011C84.285,0,84.136,0,83.976,0Z" transform="translate(-67.144)" fill="#f4f3f4"/>
  <path id="Path_6742" data-name="Path 6742" d="M8.645,18.2V.1A9.062,9.062,0,0,0,0,9.133v.034A9.047,9.047,0,0,0,8.645,18.2Z" transform="translate(0 -0.089)" fill="#354294"/>
  <path id="Path_6743" data-name="Path 6743" d="M151.5.1V18.2a9.072,9.072,0,0,0,8.6-9V9.11A9.074,9.074,0,0,0,151.5.1Z" transform="translate(-134.199 -0.089)" fill="#d62135"/>
</svg>
