<svg id="Drapeau_anglais" xmlns="http://www.w3.org/2000/svg" width="25.888" height="18.146" viewBox="0 0 25.888 18.146">
  <path id="Path_14" data-name="Path 14" d="M200.911,52a.011.011,0,0,0-.011.011h2.41V52h-2.4Z" transform="translate(-177.958 -46.05)" fill="#fff"/>
  <path id="Path_15" data-name="Path 15" d="M7.2,52.011h.091A.011.011,0,0,1,7.275,52a.169.169,0,0,0-.08.011C6.933,52,6.67,52,6.419,52H4.9v.011H7.2Z" transform="translate(-4.34 -46.05)" fill="#fff"/>
  <path id="Path_16" data-name="Path 16" d="M140.511,112.5h0a.223.223,0,0,0-.011.08v5.2h.011V112.5Z" transform="translate(-124.455 -99.642)" fill="#fff"/>
  <path id="Path_17" data-name="Path 17" d="M40.833,16.472c.148.091.285.183.445.285v-.011l-.445-.274c-1.6-1.051-3.209-2.09-4.819-3.14-.171-.114-.331-.217-.5-.331a.011.011,0,0,0-.011.011c.171.114.343.217.514.331Q38.429,14.918,40.833,16.472Z" transform="translate(-31.446 -11.504)" fill="#fff"/>
  <path id="Path_18" data-name="Path 18" d="M11.25,106.4c-.011.011-.011.011-.023.011-.605.4-1.222.788-1.827,1.188h0c.605-.388,1.21-.788,1.816-1.176C11.227,106.423,11.25,106.411,11.25,106.4Z" transform="translate(-8.327 -94.238)" fill="#fff"/>
  <path id="Path_19" data-name="Path 19" d="M140.6,5.23a.081.081,0,0,0,.069-.034c1.131-.731,2.272-1.473,3.4-2.2.765-.5,1.53-.994,2.3-1.5h0c-.765.491-1.53.994-2.3,1.485-1.131.731-2.272,1.473-3.4,2.2-.023.023-.034.046-.069.046a.284.284,0,0,0,.011-.091V0H140.6V5.23Z" transform="translate(-124.544 0.011)" fill="#fff"/>
  <path id="Path_20" data-name="Path 20" d="M201.1,106.3h0c0,.034.034.046.057.057.594.388,1.188.777,1.781,1.153V107.5c-.594-.388-1.188-.777-1.781-1.153C201.146,106.334,201.123,106.323,201.1,106.3Z" transform="translate(-178.135 -94.15)" fill="#fff"/>
  <path id="Path_21" data-name="Path 21" d="M25.626,6.875c-3.472,0-6.943.046-10.415.046-.069,0-.091-.011-.091-.091V0H10.769V6.84c0,.069-.011.08-.091.08-3.472,0-6.943-.046-10.415-.046A9.39,9.39,0,0,0,0,9.079v.046A8.853,8.853,0,0,0,.251,11.2H10.666c.08,0,.091.057.091.137v6.783h4.351V11.34c0-.069.011-.137.091-.137H25.626a9.277,9.277,0,0,0,.263-2.044V9.044A9.1,9.1,0,0,0,25.626,6.875Z" transform="translate(0 0.011)" fill="#b92d36"/>
  <path id="Path_22" data-name="Path 22" d="M133.6,99.924v-.091h.011v-.011a1.028,1.028,0,0,0,.1.057c.24.148.468.308.708.457q2.4,1.559,4.8,3.106l.206.137a9.121,9.121,0,0,0,1.7-1.473c-1.245-.811-2.489-1.622-3.734-2.421-.285-.183-.56-.365-.845-.548.023-.023.046-.011.069-.011H139.3a.23.23,0,0,1,.126.034c.879.571,1.759,1.142,2.649,1.713.114-.171.217-.354.32-.537-.594-.388-1.188-.777-1.781-1.153-.023-.011-.057-.023-.069-.057h.011v-.011h2.387c.1-.3.194-.605.274-.914H132.791c-.08,0-.091.023-.091.091v6.829h.936C133.6,103.385,133.6,101.649,133.6,99.924Z" transform="translate(-117.546 -86.975)" fill="#fffeff"/>
  <path id="Path_23" data-name="Path 23" d="M11.792,5.062v.091h-.011v.011c-.16-.1-.3-.194-.445-.285Q8.938,3.3,6.517,1.75c-.171-.114-.343-.217-.514-.331A9.646,9.646,0,0,0,4.278,2.892c.217.137.423.274.639.411C6.22,4.137,7.5,4.97,8.789,5.8c.023.011.046.034.08.057H6.106a.2.2,0,0,1-.137-.046c-.868-.571-1.747-1.131-2.615-1.7a4.859,4.859,0,0,0-.308.525c.434.285.868.56,1.3.845.171.114.354.228.548.354H4.872a.011.011,0,0,1,.011.011h-2.4a8.659,8.659,0,0,0-.285.925H12.615c.069,0,.091-.023.091-.08V-.1h-.925C11.792,1.624,11.792,3.349,11.792,5.062Z" transform="translate(-1.949 0.1)" fill="#fffeff"/>
  <path id="Path_24" data-name="Path 24" d="M140.414,6.038h-.1a.011.011,0,0,0,.011-.011h-.011a.7.7,0,0,1,.069-.046c.331-.217.651-.423.982-.639.263-.171.537-.343.8-.514a9.2,9.2,0,0,0-1.256-1.77c-.4.263-.811.525-1.21.788-1.108.719-2.215,1.439-3.335,2.158a.152.152,0,0,1-.091.034h-2.786c.137-.091.251-.171.377-.24,1.016-.662,2.033-1.313,3.049-1.976.948-.617,1.9-1.222,2.832-1.839-.171-.137-.354-.263-.537-.388-.765.5-1.53.994-2.3,1.5-1.131.731-2.273,1.473-3.4,2.2-.023.011-.034.034-.069.034V.1H132.5V6.895c0,.08.023.091.091.091h10.415a7.921,7.921,0,0,0-.285-.925C141.944,6.038,141.179,6.038,140.414,6.038Z" transform="translate(-117.369 -0.077)" fill="#fffeff"/>
  <path id="Path_25" data-name="Path 25" d="M4.792,99.025h.091a.04.04,0,0,1-.011.023c-.011.011-.023.011-.034.023-.605.388-1.21.788-1.816,1.176a8.806,8.806,0,0,0,1.256,1.781c.4-.263.811-.525,1.21-.788,1.119-.719,2.238-1.45,3.346-2.17a.23.23,0,0,1,.126-.034h2.7c.023,0,.034-.011.057.011-.137.091-.263.171-.4.263-1.245.811-2.5,1.622-3.746,2.432l-2.124,1.37c.171.137.354.263.537.388.423-.274.845-.548,1.256-.822,1.462-.948,2.935-1.907,4.4-2.855a1.692,1.692,0,0,1,.148-.091v5.287h.925V98.191c0-.08-.011-.091-.091-.091H2.2c.08.308.171.617.274.914C3.251,99.025,4.027,99.025,4.792,99.025Z" transform="translate(-1.949 -86.886)" fill="#fffeff"/>
  <path id="Path_26" data-name="Path 26" d="M141.477,20.226c-.126.08-.24.16-.377.24h2.786a.13.13,0,0,0,.091-.034c1.108-.719,2.215-1.439,3.335-2.158.4-.263.811-.525,1.21-.788a9.668,9.668,0,0,0-1.176-1.085c-.948.617-1.9,1.222-2.832,1.839C143.51,18.912,142.493,19.575,141.477,20.226Z" transform="translate(-124.987 -14.516)" fill="#b92d36"/>
  <path id="Path_27" data-name="Path 27" d="M27.434,106.552c.137-.091.263-.171.4-.263a.058.058,0,0,0-.057-.011h-2.7a.23.23,0,0,0-.126.034c-1.119.719-2.238,1.45-3.346,2.17-.4.263-.811.525-1.21.788a8.739,8.739,0,0,0,1.165,1.085l2.124-1.37C24.934,108.174,26.19,107.363,27.434,106.552Z" transform="translate(-18.07 -94.127)" fill="#b92d36"/>
  <path id="Path_28" data-name="Path 28" d="M15.064,29.069h2.764c-.034-.023-.057-.046-.08-.057-1.3-.834-2.581-1.667-3.871-2.5-.217-.137-.423-.274-.639-.411a8.987,8.987,0,0,0-.936,1.233c.868.571,1.747,1.131,2.615,1.7A.316.316,0,0,0,15.064,29.069Z" transform="translate(-10.895 -23.108)" fill="#b92d36"/>
  <path id="Path_29" data-name="Path 29" d="M168.952,106.278h-2.684c-.023,0-.046-.011-.069.011.285.183.56.365.845.548,1.245.811,2.489,1.622,3.734,2.421a9.741,9.741,0,0,0,.936-1.233c-.879-.571-1.759-1.142-2.649-1.713A.193.193,0,0,0,168.952,106.278Z" transform="translate(-147.221 -94.127)" fill="#b92d36"/>
  <path id="Path_30" data-name="Path 30" d="M201.057,42.665A.25.25,0,0,1,201,42.7h2.387a8.084,8.084,0,0,0-.548-1.2c-.274.171-.537.354-.811.525C201.708,42.242,201.388,42.448,201.057,42.665Z" transform="translate(-178.047 -36.749)" fill="#232f5c"/>
  <path id="Path_31" data-name="Path 31" d="M200.968,42.653a.7.7,0,0,0-.068.046h.011a.114.114,0,0,0,.057-.046c.32-.206.651-.423.971-.628.274-.171.537-.354.811-.525h0c-.263.171-.537.343-.8.514C201.631,42.231,201.3,42.448,200.968,42.653Z" transform="translate(-177.958 -36.749)" fill="#232f5c"/>
  <path id="Path_32" data-name="Path 32" d="M41.022,4.956c.137.091.285.183.445.285V0H40.69A8.98,8.98,0,0,0,35.7,1.5c.171.114.331.217.5.331Q38.6,3.386,41.022,4.956Z" transform="translate(-31.623 0.011)" fill="#232f5c"/>
  <path id="Path_33" data-name="Path 33" d="M86.2,5.33h0a.223.223,0,0,0,.011-.08V.1H86.2V5.33Z" transform="translate(-76.356 -0.077)" fill="#232f5c"/>
  <path id="Path_34" data-name="Path 34" d="M140.6,5.219a.081.081,0,0,0,.069-.034c1.131-.731,2.272-1.473,3.4-2.2.765-.491,1.53-.994,2.3-1.485a9.008,9.008,0,0,0-4.99-1.5H140.6V5.219Z" transform="translate(-124.544 0.011)" fill="#232f5c"/>
  <path id="Path_35" data-name="Path 35" d="M141.311,113.014c-.24-.148-.468-.308-.708-.457a.829.829,0,0,0-.1-.057v5.276h.777a9.02,9.02,0,0,0,5.025-1.519c-.069-.046-.137-.091-.194-.126Q143.726,114.573,141.311,113.014Z" transform="translate(-124.455 -99.642)" fill="#232f5c"/>
  <path id="Path_36" data-name="Path 36" d="M7.107,42.788h.08c-.194-.126-.365-.228-.537-.343-.434-.285-.868-.56-1.3-.845A7.463,7.463,0,0,0,4.8,42.788H7.107Z" transform="translate(-4.252 -36.838)" fill="#232f5c"/>
  <path id="Path_37" data-name="Path 37" d="M7,106.311V106.3H4.6a8.856,8.856,0,0,0,.537,1.21c.605-.4,1.222-.788,1.827-1.188C6.987,106.323,7,106.323,7,106.311Z" transform="translate(-4.075 -94.15)" fill="#232f5c"/>
  <path id="Path_38" data-name="Path 38" d="M41.2,112.5c-.057.034-.1.069-.148.091-1.462.948-2.935,1.907-4.4,2.855-.423.274-.834.537-1.256.811a9.02,9.02,0,0,0,5.025,1.519H41.2V112.5Z" transform="translate(-31.357 -99.642)" fill="#232f5c"/>
  <path id="Path_39" data-name="Path 39" d="M141.411,113.014c-.24-.148-.468-.308-.708-.457-.034-.023-.068-.034-.1-.057v.011c.034.023.069.034.1.057.228.148.468.3.708.445,1.6,1.051,3.2,2.078,4.8,3.118.068.046.137.091.194.126a.011.011,0,0,0,.011-.011l-.206-.137C144.608,115.081,143.01,114.042,141.411,113.014Z" transform="translate(-124.544 -99.642)" fill="#232f5c"/>
  <path id="Path_40" data-name="Path 40" d="M11.527,42.7h.023c-.194-.126-.377-.24-.548-.354-.434-.285-.868-.56-1.3-.845v.011c.423.274.856.56,1.29.845C11.162,42.471,11.333,42.573,11.527,42.7Z" transform="translate(-8.592 -36.749)" fill="#232f5c"/>
  <path id="Path_41" data-name="Path 41" d="M41.2,112.4c-.057.034-.1.069-.148.091-1.462.948-2.935,1.907-4.4,2.855-.423.274-.845.548-1.256.822h0c.423-.274.834-.537,1.256-.811,1.462-.948,2.935-1.907,4.4-2.855.034-.034.091-.057.148-.1a.352.352,0,0,0-.011.1v5.184H41.2V112.4Z" transform="translate(-31.357 -99.553)" fill="#232f5c"/>
  <path id="Path_42" data-name="Path 42" d="M7.1,106.211v0a.194.194,0,0,0-.08-.011H4.7v.011H7.1Z" transform="translate(-4.163 -94.061)" fill="#232f5c"/>
  <path id="Path_43" data-name="Path 43" d="M201.1,106.211c.011.034.046.034.069.046.594.388,1.188.777,1.781,1.153a8.856,8.856,0,0,0,.537-1.21H201.18C201.169,106.211,201.134,106.211,201.1,106.211Z" transform="translate(-178.135 -94.061)" fill="#232f5c"/>
  <path id="Path_44" data-name="Path 44" d="M201.1,106.2h0a.284.284,0,0,0,.091.011H203.5V106.2h-2.4Z" transform="translate(-178.135 -94.061)" fill="#232f5c"/>
</svg>
