<svg xmlns="http://www.w3.org/2000/svg" xmlns:xlink="http://www.w3.org/1999/xlink" width="93.87" height="93.296" viewBox="0 0 93.87 93.296">
  <defs>
    <filter id="Path_65" x="0" y="0" width="93.87" height="93.296" filterUnits="userSpaceOnUse">
      <feOffset dy="3" input="SourceAlpha"/>
      <feGaussianBlur stdDeviation="10" result="blur"/>
      <feFlood flood-opacity="0.161"/>
      <feComposite operator="in" in2="blur"/>
      <feComposite in="SourceGraphic"/>
    </filter>
  </defs>
  <g id="Group_380" data-name="Group 380" transform="translate(30 27)">
    <g id="Group_108" data-name="Group 108">
      <g id="Group_104" data-name="Group 104">
        <g id="Group_96" data-name="Group 96" transform="translate(0 0)">
          <g transform="matrix(1, 0, 0, 1, -30, -27)" filter="url(#Path_65)">
            <path id="Path_65-2" data-name="Path 65" d="M16.935,0A16.793,16.793,0,0,1,33.87,16.648,16.793,16.793,0,0,1,16.935,33.3,16.793,16.793,0,0,1,0,16.648,16.793,16.793,0,0,1,16.935,0Z" transform="translate(30 27)" fill="#fd6d6d"/>
          </g>
        </g>
      </g>
    </g>
    <g id="Group_112" data-name="Group 112" transform="translate(7.193 10.246)">
      <path id="Path_92" data-name="Path 92" d="M4805.782,970.513c1.7,1.314,3.281,2.542,4.867,3.765,1.436,1.107,2.884,2.2,4.309,3.318.409.322.69.145,1.016-.107q3.943-3.052,7.9-6.094a2.212,2.212,0,0,1,.322-.256c.234-.117.481-.206.723-.307a2.822,2.822,0,0,1,.217.747c.013,2.888-.009,5.776.015,8.664.006.7-.269.9-.93.9q-8.828-.024-17.658-.006c-.535,0-.9-.092-.9-.757.02-3.135.012-6.271.018-9.406A2.864,2.864,0,0,1,4805.782,970.513Z" transform="translate(-4805.663 -968.336)" fill="#fff"/>
      <path id="Path_93" data-name="Path 93" d="M4809.452,957.386H4827.6l.147.229a3.932,3.932,0,0,0-.486.273q-4.036,3.071-8.062,6.155c-.386.3-.707.437-1.159.087-2.8-2.167-5.623-4.313-8.435-6.469C4809.566,957.631,4809.552,957.568,4809.452,957.386Z" transform="translate(-4808.824 -957.386)" fill="#fff"/>
    </g>
  </g>
</svg>
