<svg xmlns="http://www.w3.org/2000/svg" xmlns:xlink="http://www.w3.org/1999/xlink" width="94.87" height="94.296" viewBox="0 0 94.87 94.296">
  <defs>
    <filter id="Path_65" x="0" y="0" width="94.87" height="94.296" filterUnits="userSpaceOnUse">
      <feOffset dy="3" input="SourceAlpha"/>
      <feGaussianBlur stdDeviation="10" result="blur"/>
      <feFlood flood-opacity="0.161"/>
      <feComposite operator="in" in2="blur"/>
      <feComposite in="SourceGraphic"/>
    </filter>
    <filter id="Path_58" x="27.103" y="40.931" width="40.745" height="28.411" filterUnits="userSpaceOnUse">
      <feOffset dy="3" input="SourceAlpha"/>
      <feGaussianBlur stdDeviation="3" result="blur-2"/>
      <feFlood flood-opacity="0.161"/>
      <feComposite operator="in" in2="blur-2"/>
      <feComposite in="SourceGraphic"/>
    </filter>
    <filter id="Path_59" x="31.618" y="24.919" width="31.714" height="34.611" filterUnits="userSpaceOnUse">
      <feOffset dy="3" input="SourceAlpha"/>
      <feGaussianBlur stdDeviation="3" result="blur-3"/>
      <feFlood flood-opacity="0.161"/>
      <feComposite operator="in" in2="blur-3"/>
      <feComposite in="SourceGraphic"/>
    </filter>
  </defs>
  <g id="Group_377" data-name="Group 377" transform="translate(30.5 27.5)">
    <g transform="matrix(1, 0, 0, 1, -30.5, -27.5)" filter="url(#Path_65)">
      <path id="Path_65-2" data-name="Path 65" d="M16.935,0A16.793,16.793,0,0,1,33.87,16.648,16.793,16.793,0,0,1,16.935,33.3,16.793,16.793,0,0,1,0,16.648,16.793,16.793,0,0,1,16.935,0Z" transform="translate(30.5 27.5)" fill="none" stroke="#161615" stroke-width="1"/>
    </g>
    <g id="Group_73" data-name="Group 73" transform="translate(5.603 3.419)">
      <g transform="matrix(1, 0, 0, 1, -36.1, -30.92)" filter="url(#Path_58)">
        <path id="Path_58-2" data-name="Path 58" d="M-134.7,151.843a4.974,4.974,0,0,0-2.269.614,2.54,2.54,0,0,1-1.715.621,4.094,4.094,0,0,1-2.326-.654,2.689,2.689,0,0,0-2.2-.621c-4.233.719-7.233,2.509-7.233,4.6,0,2.729,5.069,5.8,11.373,5.771,6.239-.033,11.373-3.042,11.373-5.771C-127.693,154.351-130.585,152.587-134.7,151.843Z" transform="translate(186.54 -104.84)" fill="#161615"/>
      </g>
      <g transform="matrix(1, 0, 0, 1, -36.1, -30.92)" filter="url(#Path_59)">
        <path id="Path_59-2" data-name="Path 59" d="M-129.647,131.823c-.529-.04-.529-.04-.5-.568q0-.092.007-.185a8.656,8.656,0,0,0-.321-3.014,4.738,4.738,0,0,0-2.9-3.1,7.377,7.377,0,0,0-4.962-.1,4.726,4.726,0,0,0-3.156,3.107,8.939,8.939,0,0,0-.337,3.469c.02.386.031.385-.36.387-.039,0-.078,0-.117,0a.46.46,0,0,0-.509.385,2.136,2.136,0,0,0-.037.728,8.619,8.619,0,0,0,.842,2.508.46.46,0,0,0,.449.306.19.19,0,0,1,.131.035.23.23,0,0,1,.066.165c.01.195,2.336,5.138,5.579,5.14,3.024,0,5.133-4.931,5.145-5.127a.251.251,0,0,1,.077-.181.172.172,0,0,1,.116-.028.459.459,0,0,0,.476-.337c.231-.587.5-1.164.672-1.768a5.2,5.2,0,0,0,.145-1.341A.48.48,0,0,0-129.647,131.823Zm-6.195,5.446a.76.76,0,0,1-.818-.763.786.786,0,0,1,.806-.806.775.775,0,0,1,.805.782A.762.762,0,0,1-135.842,137.269Zm2.57-5.419c-.3.336-.644.626-.97.935-.195.184-.4.361-.589.546a1.578,1.578,0,0,0-.437.885c-.016.083-.038.165-.058.248a.564.564,0,0,1-.718.417.564.564,0,0,1-.494-.559,1.993,1.993,0,0,1,.613-1.652c.375-.363.772-.7,1.156-1.057a1.458,1.458,0,0,0,.5-.784,1.237,1.237,0,0,0-.884-1.414,1.874,1.874,0,0,0-1.25.039,1.116,1.116,0,0,0-.595.532,8.211,8.211,0,0,0-.365.786.882.882,0,0,1-.352.5.65.65,0,0,1-.7-.026.654.654,0,0,1-.315-.684,2.443,2.443,0,0,1,1.134-1.728,3.348,3.348,0,0,1,1.88-.537,3.448,3.448,0,0,1,1.607.341,2.383,2.383,0,0,1,1.042.964A1.893,1.893,0,0,1-133.272,131.85Z" transform="translate(183.48 -93.56)" fill="#161615"/>
      </g>
    </g>
  </g>
</svg>
