<svg xmlns="http://www.w3.org/2000/svg" width="78.449" height="76.585" viewBox="0 0 78.449 76.585">
  <g id="Group_375" data-name="Group 375" transform="translate(0 0)">
    <g id="logo_meetcoin" data-name="logo meetcoin">
      <g id="Ellipse_4" data-name="Ellipse 4">
        <path id="Ellipse_19" data-name="Ellipse 19" d="M39.224,0a39.8,39.8,0,0,1,15.26,3.006,39.162,39.162,0,0,1,12.469,8.2,38.127,38.127,0,0,1,8.41,12.172,37.581,37.581,0,0,1,0,29.829,38.146,38.146,0,0,1-8.411,12.172,39.162,39.162,0,0,1-12.469,8.2,40.239,40.239,0,0,1-30.521,0,39.169,39.169,0,0,1-12.468-8.2,38.139,38.139,0,0,1-8.408-12.17,37.581,37.581,0,0,1,0-29.829A38.14,38.14,0,0,1,11.5,11.207a39.169,39.169,0,0,1,12.468-8.2A39.794,39.794,0,0,1,39.224,0Zm0,74.53A37.746,37.746,0,0,0,53.7,71.68a37.085,37.085,0,0,0,11.815-7.771A36.068,36.068,0,0,0,73.471,52.39a35.514,35.514,0,0,0,0-28.2A36.075,36.075,0,0,0,65.51,12.672,37.086,37.086,0,0,0,53.7,4.908a38.177,38.177,0,0,0-28.951,0A37.11,37.11,0,0,0,12.933,12.68,36.085,36.085,0,0,0,4.973,24.2a35.522,35.522,0,0,0,0,28.2,36.1,36.1,0,0,0,7.961,11.514,37.112,37.112,0,0,0,11.815,7.765A37.754,37.754,0,0,0,39.224,74.53Z" fill="#050606"/>
      </g>
      <g id="Groupe_319" data-name="Groupe 319">
        <g id="Groupe_211" data-name="Groupe 211">
          <g id="Groupe_334" data-name="Groupe 334">
            <path id="Tracé_58-2" data-name="Tracé 58-2" d="M47.891,43.862c-1.6-.278-4.5,1.168-4.5,1.168a5.46,5.46,0,0,1-3.42,1.224,7.935,7.935,0,0,1-4.618-1.279,5.623,5.623,0,0,0-4.39-1.224c-8.38,1.385-14.366,4.838-14.366,8.9,0,5.284,10.091,11.235,22.576,11.179,12.371-.056,22.576-5.9,22.576-11.179C61.8,48.756,56.042,45.308,47.891,43.862Z" fill="#040405"/>
          </g>
          <g id="Groupe_335" data-name="Groupe 335">
            <path id="Tracé_59-2" data-name="Tracé 59-2" d="M51.828,26.953C50.8,26.9,50.8,26.9,50.8,25.841v-.333a16.919,16.919,0,0,0-.627-5.84,9.262,9.262,0,0,0-5.763-6.006A14.483,14.483,0,0,0,34.6,13.44a9.307,9.307,0,0,0-6.265,6.005,16.758,16.758,0,0,0-.684,6.73c.057.72.057.72-.741.72h-.228a.941.941,0,0,0-1.029.72A3.78,3.78,0,0,0,25.6,29a16.232,16.232,0,0,0,1.654,4.836.925.925,0,0,0,.912.617.522.522,0,0,1,.285.056.806.806,0,0,1,.114.333c0,.389,4.618,9.956,11.06,9.956,5.985,0,10.2-9.57,10.2-9.956a.392.392,0,0,1,.171-.333.35.35,0,0,1,.227-.056.875.875,0,0,0,.969-.668A35.676,35.676,0,0,0,52.5,30.342a9.9,9.9,0,0,0,.29-2.611c.057-.389-.4-.779-.969-.779ZM39.566,37.466a1.467,1.467,0,0,1-1.6-1.324v-.125a1.561,1.561,0,0,1,1.544-1.557h.056a1.518,1.518,0,0,1,1.6,1.432v.072a1.466,1.466,0,0,1-1.431,1.5h-.051ZM44.64,27.009A19.91,19.91,0,0,1,42.7,28.845c-.4.333-.8.72-1.2,1.057a2.8,2.8,0,0,0-.855,1.725c-.057.167-.057.333-.114.5a1.1,1.1,0,0,1-1.311.835h-.115a1.087,1.087,0,0,1-.969-1.057,4.048,4.048,0,0,1,1.2-3.226c.741-.72,1.544-1.338,2.28-2.058a2.578,2.578,0,0,0,.969-1.5A2.359,2.359,0,0,0,40.819,22.4a3.879,3.879,0,0,0-2.509.056,2.2,2.2,0,0,0-1.2,1.057c-.285.5-.515,1-.741,1.5a1.65,1.65,0,0,1-.684.946,1.337,1.337,0,0,1-1.369-.056,1.263,1.263,0,0,1-.627-1.338,4.683,4.683,0,0,1,2.28-3.337,6.671,6.671,0,0,1,3.7-1.057,6.349,6.349,0,0,1,3.19.668,4.448,4.448,0,0,1,2.052,1.891A3.3,3.3,0,0,1,44.64,27.009Z" fill="#040405"/>
          </g>
        </g>
      </g>
    </g>
  </g>
</svg>
