<svg id="logo_chrono" xmlns="http://www.w3.org/2000/svg" width="39.129" height="46" viewBox="0 0 39.129 46">
  <path id="Path_96" data-name="Path 96" d="M586.81,213.491c-.792-.725-1.52-1.382-2.239-2.051-.926-.862-.781-1.659.053-2.538,1.817-1.918,2.12-1.963,3.99-.1.591.59,1.084,1.278,1.622,1.921a12.485,12.485,0,0,1,1.375-.983,14.481,14.481,0,0,1,6.165-1.894c.343-.035.626-.649.709-1.037a9.247,9.247,0,0,0,.031-1.836c-1.054-.243-2.041-.4-2.045-1.839-.006-2.338.181-2.615,2.558-2.615,1.332,0,2.664.025,3.994,0,1.1-.024,2.1-.04,2.2,1.477.137,2.1-.081,2.527-1.874,2.935-.021.445-.051.923-.062,1.4-.011.436,0,.873,0,1.271,1.552.43,3,.742,4.383,1.24,1.331.479,2.593,1.15,4.248,1.9.668-.773,1.4-1.708,2.223-2.547,1.124-1.141,1.664-1.049,3.057.353,1.308,1.317,1.4,1.888.317,2.955-.732.722-1.57,1.336-2.333,1.976,9.213,10.929,5,23.288-1.932,28.744a19.807,19.807,0,0,1-26.287-1.485C580.137,233.861,578.9,222.265,586.81,213.491Zm14.133-1.735a15.321,15.321,0,1,0,15.421,15.384A15.309,15.309,0,0,0,600.943,211.756Z" transform="translate(-581.347 -200.513)" fill="#4ed171"/>
  <path id="Path_97" data-name="Path 97" d="M617.5,276.387c3.8-3.5,7.464-6.895,11.15-10.277a2.454,2.454,0,0,1,3.656-.139,1.5,1.5,0,0,1,.1,2.565q-6.536,6.1-13.157,12.134a2.2,2.2,0,0,1-3.064.055c-2.4-1.854-4.862-3.649-7.276-5.488-1.273-.97-1.231-1.565.094-2.745,1.17-1.043,1.775-1.075,3.036-.146C613.815,273.654,615.583,274.968,617.5,276.387Z" transform="translate(-600.932 -244.599)" fill="#4ed171"/>
</svg>
