<?xml version="1.0" encoding="utf-8"?>
<!-- Generator: Adobe Illustrator 26.0.2, SVG Export Plug-In . SVG Version: 6.00 Build 0)  -->
<svg version="1.1" id="Calque_1" xmlns="http://www.w3.org/2000/svg" xmlns:xlink="http://www.w3.org/1999/xlink" x="0px" y="0px"
	 viewBox="0 0 193.8 57" style="enable-background:new 0 0 193.8 57;" xml:space="preserve">
<style type="text/css">
	.st0{fill:none;stroke:#161615;stroke-miterlimit:10;}
	.st1{fill:#161615;}
	.st2{fill:#060707;}
</style>
<g id="logo_meetcoin.app" transform="translate(-6.5 -70.5)">
	<g id="Groupe_251" transform="translate(7 71)">
		<circle id="Ellipse_7" class="st0" cx="28" cy="28" r="28"/>
		<g id="Groupe_73" transform="translate(9.299 5.93)">
			<path id="Tracé_58" class="st1" d="M25.9,26.9c-1.3-0.2-3.7,1-3.7,1c-0.8,0.7-1.8,1.1-2.8,1c-1.4,0-2.7-0.3-3.8-1.1
				c-1-0.9-2.3-1.3-3.6-1C4.9,28,0,31,0,34.5c0,4.6,8.3,9.7,18.7,9.6c10.3-0.1,18.7-5.1,18.7-9.6C37.4,31.1,32.6,28.1,25.9,26.9z"/>
			<path id="Tracé_59" class="st1" d="M29.2,12.3c-0.9-0.1-0.9-0.1-0.8-0.9c0-0.1,0-0.2,0-0.3c0.1-1.7-0.1-3.4-0.5-5
				c-0.7-2.4-2.5-4.3-4.8-5.2c-2.6-1-5.5-1.1-8.2-0.2c-2.5,0.8-4.4,2.7-5.2,5.2c-0.6,1.9-0.7,3.8-0.6,5.8c0,0.6,0.1,0.6-0.6,0.6
				c-0.1,0-0.1,0-0.2,0c-0.4,0-0.8,0.2-0.8,0.6c-0.1,0.4-0.1,0.8-0.1,1.2c0.2,1.5,0.7,2.9,1.4,4.2c0.1,0.3,0.4,0.5,0.7,0.5
				c0.1,0,0.2,0,0.2,0.1c0.1,0.1,0.1,0.2,0.1,0.3c0,0.3,3.8,8.6,9.2,8.6c5,0,8.4-8.2,8.5-8.6c0-0.1,0-0.2,0.1-0.3
				c0.1,0,0.1-0.1,0.2,0c0.4,0,0.7-0.2,0.8-0.6c0.4-1,0.8-1.9,1.1-3c0.2-0.7,0.3-1.5,0.2-2.2C30,12.6,29.6,12.3,29.2,12.3
				C29.2,12.3,29.2,12.3,29.2,12.3z M19,21.4c-0.7,0-1.3-0.5-1.3-1.2c0,0,0-0.1,0-0.1c0-0.7,0.5-1.3,1.3-1.3c0,0,0,0,0.1,0
				c0.7,0,1.3,0.5,1.3,1.2c0,0,0,0,0,0.1C20.3,20.8,19.8,21.3,19,21.4C19,21.4,19,21.4,19,21.4L19,21.4z M23.2,12.3
				c-0.5,0.6-1.1,1-1.6,1.6c-0.3,0.3-0.6,0.6-1,0.9c-0.4,0.4-0.6,0.9-0.7,1.5c0,0.1-0.1,0.3-0.1,0.4c-0.1,0.5-0.6,0.8-1.1,0.7
				c0,0-0.1,0-0.1,0c-0.5-0.1-0.8-0.5-0.8-0.9c-0.1-1,0.3-2,1-2.8c0.6-0.6,1.3-1.2,1.9-1.8c0.4-0.3,0.7-0.8,0.8-1.3
				c0.2-1-0.4-2.1-1.5-2.4C19.4,8,18.7,8.1,18,8.3c-0.4,0.2-0.8,0.5-1,0.9c-0.2,0.4-0.4,0.9-0.6,1.3c-0.1,0.3-0.3,0.6-0.6,0.8
				c-0.4,0.2-0.8,0.2-1.1,0c-0.4-0.2-0.6-0.7-0.5-1.1c0.2-1.2,0.8-2.2,1.9-2.9c0.9-0.6,2-0.9,3.1-0.9c0.9,0,1.8,0.2,2.6,0.6
				c0.7,0.4,1.3,0.9,1.7,1.6C24.2,9.8,24.1,11.3,23.2,12.3L23.2,12.3z"/>
		</g>
	</g>
	<g id="Logo" transform="translate(72.655 90.111)">
		<g id="meetcoin.app">
			<g id="Groupe_338">
				<path id="Tracé_774" class="st2" d="M2.7,3.9v1.4h0C3,4.8,3.5,4.4,4,4.1c0.6-0.3,1.2-0.4,1.8-0.4c0.6,0,1.2,0.1,1.8,0.4
					c0.6,0.3,1,0.8,1.2,1.3c0.3-0.5,0.8-0.9,1.2-1.2c0.6-0.4,1.2-0.5,1.9-0.5c0.5,0,1,0.1,1.5,0.2c0.4,0.1,0.8,0.3,1.2,0.6
					c0.3,0.3,0.6,0.7,0.8,1.1c0.2,0.5,0.3,1.1,0.3,1.7v6.9h-2.8V8.4c0-0.3,0-0.7,0-1c0-0.3-0.1-0.6-0.2-0.8
					c-0.1-0.2-0.3-0.4-0.5-0.5c-0.3-0.1-0.6-0.2-0.9-0.2c-0.3,0-0.7,0.1-1,0.2C9.9,6.2,9.7,6.4,9.6,6.7C9.5,6.9,9.4,7.2,9.3,7.5
					c0,0.3-0.1,0.6-0.1,0.9v5.7H6.4V8.4c0-0.3,0-0.6,0-0.9c0-0.3-0.1-0.6-0.2-0.8C6.1,6.4,6,6.2,5.7,6.1c-0.3-0.2-0.7-0.3-1-0.2
					c-0.2,0-0.4,0-0.5,0.1C4,6,3.7,6.1,3.6,6.3C3.3,6.5,3.2,6.7,3,7C2.9,7.4,2.8,7.8,2.8,8.2v6H0V3.9H2.7z"/>
				<path id="Tracé_775" class="st2" d="M20.9,11.7c0.5,0.4,1.2,0.7,1.8,0.6c0.5,0,1-0.1,1.5-0.4c0.3-0.2,0.6-0.5,0.8-0.9h2.5
					c-0.3,1.1-0.9,2-1.8,2.6c-0.9,0.6-1.9,0.8-3,0.8c-0.7,0-1.5-0.1-2.2-0.4c-0.6-0.2-1.2-0.6-1.6-1.1c-0.5-0.5-0.8-1.1-1-1.7
					c-0.3-0.7-0.4-1.4-0.4-2.2c0-0.7,0.1-1.5,0.4-2.1c0.2-0.6,0.6-1.2,1.1-1.7c0.5-0.5,1-0.9,1.7-1.1c0.7-0.3,1.4-0.4,2.1-0.4
					c0.8,0,1.6,0.2,2.3,0.5c0.6,0.3,1.2,0.8,1.6,1.4c0.4,0.6,0.7,1.2,0.9,1.9c0.2,0.7,0.3,1.5,0.2,2.3h-7.4
					C20.2,10.5,20.5,11.2,20.9,11.7z M24.1,6.3c-0.4-0.4-1-0.6-1.5-0.6c-0.4,0-0.8,0.1-1.1,0.2c-0.3,0.1-0.5,0.3-0.7,0.6
					c-0.2,0.2-0.3,0.5-0.4,0.7c-0.1,0.2-0.1,0.4-0.1,0.7h4.6C24.8,7.3,24.5,6.8,24.1,6.3L24.1,6.3z"/>
				<path id="Tracé_776" class="st2" d="M32.3,11.7c0.5,0.4,1.2,0.7,1.8,0.6c0.5,0,1-0.1,1.5-0.4c0.3-0.2,0.6-0.5,0.8-0.9h2.5
					c-0.3,1.1-0.9,2-1.8,2.6c-0.9,0.6-1.9,0.8-3,0.8c-0.7,0-1.5-0.1-2.2-0.4c-0.6-0.2-1.2-0.6-1.6-1.1c-0.5-0.5-0.8-1.1-1-1.7
					c-0.3-0.7-0.4-1.4-0.4-2.2c0-0.7,0.1-1.5,0.4-2.1c0.2-0.6,0.6-1.2,1.1-1.7c0.5-0.5,1-0.9,1.7-1.1c0.7-0.3,1.4-0.4,2.1-0.4
					c0.8,0,1.6,0.2,2.3,0.5C37,4.5,37.5,4.9,38,5.5c0.4,0.6,0.7,1.2,0.9,1.9C39,8.2,39.1,9,39.1,9.7h-7.4
					C31.6,10.5,31.9,11.2,32.3,11.7z M35.5,6.3c-0.4-0.4-1-0.6-1.5-0.6c-0.4,0-0.8,0.1-1.1,0.2c-0.3,0.1-0.5,0.3-0.7,0.6
					C32,6.8,31.8,7,31.8,7.3c-0.1,0.2-0.1,0.4-0.1,0.7h4.6C36.2,7.3,35.9,6.8,35.5,6.3L35.5,6.3z"/>
				<path id="Tracé_777" class="st2" d="M46.4,3.9v1.9h-2.1v5.1c0,0.3,0,0.7,0.2,1c0.3,0.2,0.6,0.3,1,0.2c0.2,0,0.3,0,0.5,0
					c0.1,0,0.3,0,0.4-0.1v2.2c-0.3,0-0.5,0.1-0.8,0.1c-0.3,0-0.6,0-0.9,0c-0.4,0-0.8,0-1.2-0.1c-0.4,0-0.7-0.2-1-0.3
					c-0.3-0.2-0.5-0.4-0.7-0.7c-0.2-0.4-0.3-0.8-0.3-1.2V5.8h-1.7V3.9h1.7V0.8h2.8v3.1H46.4z"/>
				<path id="Tracé_778" class="st2" d="M52.6,5.8c-0.4,0-0.8,0.1-1.1,0.3c-0.3,0.2-0.6,0.5-0.7,0.8c-0.2,0.3-0.3,0.7-0.4,1.1
					c-0.1,0.4-0.1,0.8-0.1,1.2c0,0.4,0,0.8,0.1,1.1c0.1,0.4,0.2,0.7,0.4,1c0.2,0.3,0.4,0.6,0.7,0.8c0.3,0.2,0.7,0.3,1.1,0.3
					c0.6,0,1.1-0.2,1.6-0.6c0.4-0.4,0.6-1,0.7-1.5h2.7c-0.1,1.2-0.7,2.3-1.6,3.1c-1,0.7-2.1,1.1-3.4,1.1c-0.7,0-1.4-0.1-2.1-0.4
					c-0.6-0.2-1.2-0.6-1.6-1.1c-0.5-0.5-0.8-1-1.1-1.7c-0.3-0.7-0.4-1.4-0.4-2.1c0-0.8,0.1-1.5,0.3-2.2c0.2-0.7,0.6-1.3,1-1.8
					c0.5-0.5,1-0.9,1.6-1.2c0.7-0.3,1.5-0.4,2.2-0.4c0.6,0,1.2,0.1,1.8,0.2c0.5,0.1,1.1,0.4,1.5,0.7c0.4,0.3,0.8,0.7,1.1,1.2
					c0.3,0.5,0.5,1.1,0.5,1.7h-2.8C54.6,6.5,53.7,5.7,52.6,5.8C52.7,5.8,52.6,5.8,52.6,5.8z"/>
				<path id="Tracé_779" class="st2" d="M59.2,6.8c0.2-0.6,0.6-1.2,1.1-1.7c0.5-0.5,1-0.8,1.7-1.1c0.7-0.3,1.4-0.4,2.2-0.4
					c0.8,0,1.5,0.1,2.2,0.4c0.6,0.2,1.2,0.6,1.7,1.1c0.5,0.5,0.8,1.1,1.1,1.7c0.3,0.7,0.4,1.5,0.4,2.2c0,0.8-0.1,1.5-0.4,2.2
					c-0.2,0.6-0.6,1.2-1.1,1.7c-0.5,0.5-1,0.8-1.7,1.1c-0.7,0.3-1.4,0.4-2.2,0.4c-0.7,0-1.5-0.1-2.2-0.4c-0.6-0.2-1.2-0.6-1.7-1.1
					c-0.5-0.5-0.8-1.1-1.1-1.7c-0.3-0.7-0.4-1.5-0.4-2.2C58.8,8.3,58.9,7.5,59.2,6.8z M61.7,10.3c0.1,0.4,0.2,0.7,0.4,1.1
					c0.2,0.3,0.5,0.6,0.8,0.7c0.4,0.2,0.8,0.3,1.2,0.3c0.4,0,0.8-0.1,1.2-0.3c0.3-0.2,0.6-0.4,0.8-0.7c0.2-0.3,0.3-0.7,0.4-1.1
					c0.1-0.4,0.1-0.8,0.1-1.2c0-0.4,0-0.8-0.1-1.2c-0.1-0.4-0.2-0.7-0.4-1.1c-0.2-0.3-0.5-0.6-0.8-0.7c-0.4-0.2-0.8-0.3-1.2-0.3
					c-0.4,0-0.8,0.1-1.2,0.3c-0.3,0.2-0.6,0.4-0.8,0.7c-0.2,0.3-0.3,0.7-0.4,1.1c-0.1,0.4-0.1,0.8-0.1,1.2
					C61.6,9.5,61.7,9.9,61.7,10.3L61.7,10.3z"/>
				<path id="Tracé_780" class="st2" d="M71.3,2.3V0h2.8v2.3H71.3z M74.2,3.9v10.3h-2.8V3.9L74.2,3.9z"/>
				<path id="Tracé_781" class="st2" d="M79.1,3.9v1.4h0.1c0.3-0.6,0.8-1,1.4-1.3c0.5-0.3,1.1-0.4,1.7-0.4c0.6,0,1.3,0.1,1.9,0.3
					c0.4,0.2,0.8,0.5,1.1,0.9c0.3,0.4,0.5,0.8,0.6,1.3C86,6.7,86,7.3,86,7.9v6.3h-2.8V8.4c0-0.7-0.1-1.3-0.4-1.9
					c-0.3-0.4-0.9-0.7-1.4-0.6c-0.6-0.1-1.3,0.2-1.7,0.7c-0.4,0.7-0.6,1.5-0.5,2.3v5.4h-2.8V3.9H79.1z"/>
				<path id="Tracé_782" class="st2" d="M91.4,11.1v3.1h-3.1v-3.1H91.4z"/>
				<path id="Tracé_783" class="st2" d="M93.6,7.1c0-0.6,0.2-1.2,0.5-1.6c0.3-0.4,0.7-0.8,1.1-1.1c0.5-0.3,1-0.5,1.5-0.6
					c0.6-0.1,1.1-0.2,1.7-0.2c0.5,0,1,0,1.6,0.1c0.5,0.1,1,0.2,1.4,0.4c0.4,0.2,0.8,0.5,1.1,0.9c0.3,0.4,0.4,1,0.4,1.5v5.3
					c0,0.4,0,0.9,0.1,1.3c0,0.3,0.1,0.7,0.3,1h-2.9c-0.1-0.2-0.1-0.3-0.1-0.5c0-0.2-0.1-0.3-0.1-0.5c-0.4,0.5-1,0.8-1.6,1
					c-0.6,0.2-1.2,0.3-1.9,0.3c-0.5,0-0.9-0.1-1.4-0.2c-0.4-0.1-0.8-0.3-1.1-0.6c-0.3-0.3-0.6-0.6-0.7-1c-0.2-0.4-0.3-0.9-0.3-1.4
					c0-0.5,0.1-1,0.3-1.4C93.7,9.6,94,9.3,94.3,9c0.3-0.2,0.7-0.4,1.1-0.5c0.4-0.1,0.8-0.2,1.3-0.3c0.4-0.1,0.8-0.1,1.3-0.2
					c0.4,0,0.7-0.1,1.1-0.2c0.3-0.1,0.5-0.2,0.8-0.3c0.2-0.2,0.3-0.4,0.3-0.7c0-0.3,0-0.5-0.1-0.7c-0.1-0.2-0.2-0.3-0.4-0.4
					c-0.2-0.1-0.4-0.2-0.6-0.2c-0.2,0-0.5-0.1-0.7,0c-0.5,0-0.9,0.1-1.3,0.4c-0.3,0.3-0.6,0.7-0.6,1.2H93.6z M100.1,9.2
					c-0.1,0.1-0.3,0.2-0.4,0.2c-0.2,0.1-0.4,0.1-0.6,0.1c-0.2,0-0.4,0.1-0.6,0.1c-0.2,0-0.5,0.1-0.7,0.1c-0.2,0-0.4,0.1-0.6,0.2
					c-0.2,0.1-0.4,0.2-0.5,0.3c-0.2,0.1-0.3,0.3-0.4,0.4c-0.1,0.2-0.1,0.4-0.1,0.7c0,0.2,0,0.4,0.1,0.6c0.1,0.2,0.2,0.3,0.4,0.4
					c0.2,0.1,0.4,0.2,0.6,0.2c0.2,0,0.4,0.1,0.7,0.1c0.4,0,0.9-0.1,1.3-0.3c0.3-0.2,0.5-0.4,0.7-0.7c0.1-0.2,0.2-0.5,0.3-0.8
					c0-0.2,0-0.4,0.1-0.6L100.1,9.2z"/>
				<path id="Tracé_784" class="st2" d="M107.8,3.9v1.3h0c0.3-0.5,0.8-0.9,1.3-1.2c0.5-0.3,1.1-0.4,1.7-0.4c0.7,0,1.4,0.1,2.1,0.5
					c0.6,0.3,1.1,0.7,1.5,1.2c0.4,0.5,0.7,1.1,0.9,1.8c0.2,0.7,0.3,1.4,0.3,2.1c0,0.7-0.1,1.3-0.3,2c-0.2,0.6-0.5,1.2-0.8,1.7
					c-0.4,0.5-0.9,0.9-1.4,1.2c-0.6,0.3-1.3,0.5-2,0.4c-0.6,0-1.2-0.1-1.8-0.4c-0.5-0.3-1-0.7-1.3-1.1h0v4.9h-2.8V3.9H107.8z
					 M111.4,12.1c0.3-0.2,0.6-0.4,0.8-0.7c0.2-0.3,0.3-0.7,0.4-1c0.1-0.4,0.1-0.8,0.1-1.2c0-0.4,0-0.8-0.1-1.2
					c-0.1-0.4-0.2-0.7-0.4-1.1c-0.2-0.3-0.5-0.6-0.8-0.8c-0.3-0.2-0.7-0.3-1.1-0.3c-0.4,0-0.8,0.1-1.2,0.3c-0.3,0.2-0.6,0.4-0.8,0.7
					c-0.2,0.3-0.3,0.7-0.4,1.1c-0.1,0.4-0.1,0.8-0.1,1.2c0,0.4,0,0.8,0.1,1.2c0.1,0.4,0.2,0.7,0.4,1c0.2,0.3,0.5,0.5,0.8,0.7
					C109.8,12.4,110.7,12.4,111.4,12.1L111.4,12.1z"/>
				<path id="Tracé_785" class="st2" d="M119.9,3.9v1.3h0c0.3-0.5,0.8-0.9,1.3-1.2c0.5-0.3,1.1-0.4,1.7-0.4c0.7,0,1.4,0.1,2.1,0.5
					c0.6,0.3,1.1,0.7,1.5,1.2c0.4,0.5,0.7,1.1,0.9,1.8c0.2,0.7,0.3,1.4,0.3,2.1c0,0.7-0.1,1.3-0.3,2c-0.2,0.6-0.5,1.2-0.8,1.7
					c-0.4,0.5-0.9,0.9-1.4,1.2c-0.6,0.3-1.3,0.5-2,0.4c-0.6,0-1.2-0.1-1.8-0.4c-0.5-0.3-1-0.7-1.3-1.1h0v4.9h-2.8V3.9H119.9z
					 M123.6,12.1c0.3-0.2,0.6-0.4,0.8-0.7c0.2-0.3,0.3-0.7,0.4-1c0.1-0.4,0.1-0.8,0.1-1.2c0-0.4,0-0.8-0.1-1.2
					c-0.1-0.4-0.2-0.7-0.4-1.1c-0.2-0.3-0.5-0.6-0.8-0.8c-0.3-0.2-0.7-0.3-1.1-0.3c-0.4,0-0.8,0.1-1.2,0.3c-0.3,0.2-0.6,0.4-0.8,0.7
					c-0.2,0.3-0.3,0.7-0.4,1.1c-0.1,0.4-0.1,0.8-0.1,1.2c0,0.4,0,0.8,0.1,1.2c0.1,0.4,0.2,0.7,0.4,1c0.2,0.3,0.5,0.5,0.8,0.7
					C122,12.4,122.8,12.4,123.6,12.1z"/>
			</g>
		</g>
	</g>
</g>
</svg>
